<?xml version="1.0" encoding="UTF-8"?>
<svg width="3e3" height="1200" version="1.1" viewBox="0 0 793.75 317.5" xmlns="http://www.w3.org/2000/svg"><g transform="translate(0 20.5)"><g fill="#fff" stroke-width="7.4214" style="paint-order:markers stroke fill" aria-label="Locke Data"><path d="m124.51 138.33-9.6302 85.594 25.793-1.0102q1.7509 0.0674 1.7509 1.7509l-1.7509 13.94q-0.20203 1.7509-1.7509 1.8183l-41.484 1.4816q-1.4142 0-1.4142-1.2795l11.516-101.89q0.13468-0.80813 0.40406-1.1448 0.33672-0.33672 1.2795-0.40406l13.536-0.47141q1.7509 0.0674 1.7509 1.6162z" style="paint-order:markers stroke fill"/><path d="m180 242.37q-11.92 0-17.509-7.1384-5.5222-7.2058-5.5222-20.944 0-6.3976 1.4142-16.701 1.4142-10.304 2.6264-14.95 1.2122-4.7141 3.4345-9.1588 2.2223-4.512 5.2528-7.4078 6.667-6.465 18.048-6.465 16.162 0 20.944 11.852 2.5591 6.3303 2.5591 15.354 0 8.9567-1.4142 18.587-1.3469 9.6302-2.5591 14.277-1.2122 4.5794-3.4345 9.0241-2.155 4.3773-5.1855 7.2731-6.667 6.3977-18.654 6.3977zm11.92-29.497q0.74079-3.5692 1.8856-13.334 1.2122-9.8322 1.2122-14.546 0-11.448-8.2833-11.448-3.9059 0-6.465 3.7039-2.4917 3.7039-4.0406 12.324-3.0978 17.509-3.0978 28.419t8.2159 10.91q3.9059 0 6.465-3.7039 2.6264-3.7712 4.108-12.324z" style="paint-order:markers stroke fill"/><path d="m272.53 161.69q1.4816 0.53875 1.4816 2.5591l-1.5489 12.189q-0.13469 1.3469-1.8856 1.3469-1.6836 0-3.2325-0.67344-6.5323-2.8958-10.842-2.8958t-6.8691 3.5692q-2.5591 3.5692-4.108 10.236-2.8958 12.459-2.8958 22.762 0 16.567 8.5526 16.567 6.1956 0 10.034-1.5489 3.8386-1.6162 4.9834-1.6162 2.357 0 2.357 2.0203l-1.4142 11.852q-0.13469 1.2122-0.53875 1.4816-0.33672 0.20203-0.94281 0.47141-8.1486 2.357-15.354 2.357-7.1384 0-11.314-1.8183-4.108-1.8183-6.5323-4.6467-2.4244-2.8958-3.9059-6.9364-2.6264-6.9364-2.6264-17.038 0-10.169 1.2795-17.644 1.3469-7.5425 2.7611-12.257 1.4816-4.7141 3.9059-9.0241 2.4244-4.3774 5.6569-7.2058 7.0711-6.1956 18.722-6.1956 7.8119 0 14.277 2.0877z" style="paint-order:markers stroke fill"/><path d="m336.51 240.22q0 1.2122-1.8183 1.2122l-14.344 0.47141q-1.0102-0.0673-1.4816-1.2795l-13.738-38.723-4.2426 37.712q-0.13469 0.94282-0.47141 1.3469t-1.2795 0.4714l-13.536 0.47141q-1.4816-0.13469-1.4816-1.2795l12.459-110.65q0.13469-0.94281 0.4714-1.3469 0.33672-0.40407 1.2795-0.47141l13.199-0.47141q1.7509 0.20203 1.7509 1.8183l-7.6772 68.152 17.913-35.288q0.80812-1.6162 2.2223-1.6836l13.94-0.47141q1.6836 0.20203 1.6836 1.5489 0 0.74078-0.26937 1.3469l-20.136 34.951 15.354 41.349q0.20203 0.47141 0.20203 0.80813z" style="paint-order:markers stroke fill"/><path d="m354.42 229.04q-1.5489-4.0406-2.155-7.9466-0.53875-3.9733-0.53875-10.842t1.4816-16.971q4.9161-33.672 30.574-33.672 9.8995 0 15.152 6.8017 5.2528 6.8017 5.2528 17.644t-1.3469 21.079q-0.20203 1.8183-2.0876 1.8856l-33.268 1.1448q-0.0673 1.0102-0.0673 2.6938 0 7.6098 2.6264 12.055 2.6938 4.4447 8.0812 4.4447t9.9669-1.5489q4.6467-1.6162 5.4548-1.6162 0.80813 0 1.4142 0.53874 0.6061 0.53875 0.6061 1.4816l-1.3469 11.852q-0.0673 1.0102-0.40406 1.3469-0.26938 0.26938-1.1448 0.6061-8.1486 2.357-15.691 2.357t-11.718-1.8183q-4.1753-1.8183-6.7344-4.6467-2.4917-2.8958-4.108-6.8691zm14.681-37.78-0.60609 4.31 17.577-0.87547q1.1448-0.0673 1.4816-0.40406 1.0102-1.0102 1.0102-5.5222 0-4.5794-0.33672-6.3976-0.26938-1.8856-1.0102-3.8386-1.5489-4.31-5.3202-4.31-3.7039 0-5.8589 1.2795-4.7814 2.9631-6.9364 15.758z" style="paint-order:markers stroke fill"/><path d="m457.32 138.73q0.13468-0.80813 0.4714-1.1448t6.8017-0.94281 17.711-0.60609q11.314 0 17.375 6.5323 6.0609 6.465 6.0609 17.779 0 21.348-4.7814 49.161-2.5591 14.748-8.2833 21.954-5.2528 6.5997-16.432 8.6873-5.0508 0.87547-12.324 1.1448l-16.769 0.60609q-1.4816-0.0673-1.4816-1.2795zm15.422 12.997-8.2159 73.337q10.034-0.87546 13.873-3.9059 3.9059-3.0305 5.4548-11.516 1.5489-8.4853 3.0305-23.166 1.5489-14.681 1.5489-24.042 0-5.5222-2.6938-8.2159t-7.3405-2.6938q-4.5794 0-5.6569 0.20203z" style="paint-order:markers stroke fill"/><path d="m576.52 161.96-8.7547 77.647q-0.20203 1.7509-1.7509 1.8183l-13.603 0.47141q-1.4142-0.13469-1.4142-1.2795l1.2795-9.1588q-3.0978 5.2528-6.8017 8.0812-3.6366 2.8284-8.2159 2.8284-4.5794 0-7.8119-1.5489-3.2325-1.6162-5.3202-4.1753-2.0203-2.6264-3.2998-6.263-2.357-6.465-2.357-17.644 0-11.246 1.4816-19.058 1.5489-7.8119 2.6938-11.852 1.1448-4.108 3.0305-8.418 1.953-4.31 4.3773-7.2058 5.5222-6.5997 13.94-6.5997 6.263 0 9.5628 3.0305 3.2998 2.9631 5.5222 8.822l0.80812-9.1588q0.13469-1.4816 1.6836-1.6162l13.199-0.47141q1.7509 0.13469 1.7509 1.7509zm-41.08 48.824q0 16.095 8.62 16.095 3.7712 0 6.1283-3.4345 2.357-3.5019 4.0406-13.94 1.7509-10.438 1.7509-15.22t-0.0673-6.0609-0.26938-3.3672q-0.20203-2.155-0.74078-3.5692-0.53875-1.4816-1.4142-2.9631-1.7509-2.8958-5.6569-2.8958t-6.1956 3.5019q-2.2897 3.4345-3.5692 9.2261-2.6264 12.391-2.6264 22.628z" style="paint-order:markers stroke fill"/><path d="m598.54 160.48q1.5489-14.816 2.0203-15.287 0.4714-0.53875 1.4142-0.6061l12.863-0.4714q1.8183 0.13468 1.8183 1.6836-1.2795 7.4752-2.155 14.344l15.691-0.53875q1.6162 0.0673 1.6162 1.7509l-1.8856 10.708q-0.26937 1.6162-1.6836 1.6836l-15.422 0.60609q-4.5794 41.214-4.5794 45.457 0 7.8792 6.7344 7.8792 3.4345 0 6.667-1.0775t4.0406-1.0775q1.4142 0 1.4142 1.7509l-1.4142 11.785q-0.13469 1.0102-0.53875 1.4816-0.33672 0.4714-3.2998 1.1448-2.8958 0.67344-9.9669 0.67344-10.371 0-15.354-4.7814-4.9834-4.8488-4.9834-14.412t5.3202-48.622l-6.5997 0.26938q-1.6836-0.0674-1.6836-1.6836l1.8183-10.842q0.20203-1.5489 1.7509-1.6162z" style="paint-order:markers stroke fill"/><path d="m697.74 161.96-8.7547 77.647q-0.20203 1.7509-1.7509 1.8183l-13.603 0.47141q-1.4142-0.13469-1.4142-1.2795l1.2795-9.1588q-3.0978 5.2528-6.8017 8.0812-3.6366 2.8284-8.2159 2.8284-4.5794 0-7.8119-1.5489-3.2325-1.6162-5.3202-4.1753-2.0203-2.6264-3.2998-6.263-2.357-6.465-2.357-17.644 0-11.246 1.4816-19.058 1.5489-7.8119 2.6938-11.852 1.1448-4.108 3.0305-8.418 1.953-4.31 4.3773-7.2058 5.5222-6.5997 13.94-6.5997 6.263 0 9.5628 3.0305 3.2998 2.9631 5.5222 8.822l0.80812-9.1588q0.13469-1.4816 1.6836-1.6162l13.199-0.47141q1.7509 0.13469 1.7509 1.7509zm-41.08 48.824q0 16.095 8.62 16.095 3.7712 0 6.1283-3.4345 2.357-3.5019 4.0406-13.94 1.7509-10.438 1.7509-15.22t-0.0673-6.0609-0.26937-3.3672q-0.20204-2.155-0.74079-3.5692-0.53875-1.4816-1.4142-2.9631-1.7509-2.8958-5.6569-2.8958t-6.1956 3.5019q-2.2897 3.4345-3.5692 9.2261-2.6264 12.391-2.6264 22.628z" style="paint-order:markers stroke fill"/></g><path d="m491.55-12.886c-9.6309 0.02999-19.27 1.661-27.216 4.6523-24.309 9.1514-42.345 27.767-50.72 54.281-0.0123 0.04251-0.0242 0.08609-0.0329 0.13053-2.0692 10.279-2.9514 17.763-3.8288 27.589l-0.55594 6.1946c-0.0806 0.92195 0.76587 1.8191 1.7177 1.8205h40.004c0.6618 7.99e-4 1.1665-0.44368 1.2296-1.083l0.60498-6.2789c0.85096-8.7583 0.84373-12.688 2.2634-19.553 2.3513-7.331 8.2059-15.417 15.518-20.274 7.3663-4.8931 15.655-6.9214 25.278-3.4471 3.8872 1.4035 6.9763 3.3265 9.8338 5.7816 5.5047 4.7291 7.297 10.821 7.4577 20.577 0.13151 7.9982-1.1757 18.092-2.4814 29.338h-78.869c-7.8441 0-15.385-0.47335-22.771 0.38769-7.4242 0.86558-15.26 3.4843-21.038 9.9661-5.8594 6.5729-7.9166 14.774-9.1233 22.865-1.2092 8.106-1.49 16.532-2.2596 24.239l-0.77982 7.7959c-0.0928 0.92612 0.7572 1.836 1.7163 1.8373h12.52c0.6588-5.8e-4 1.1613-0.44267 1.2262-1.0788l0.77983-7.7959c0.83723-8.383 1.1508-16.663 2.1694-23.497 1.0169-6.8172 2.8923-11.94 5.1523-14.475 2.4722-2.7732 5.2867-3.8932 10.677-4.5216 5.3403-0.62261 12.605-0.28654 20.967-0.28654h92.384c0.65771-7e-5 1.1601-0.44013 1.2269-1.0746l0.65211-6.2241c1.4521-13.808 3.5831-26.655 3.3885-38.482-0.19501-11.856-3.1472-23.388-12.525-31.445-4.0025-3.4389-8.753-6.4045-14.416-8.4491-14.258-5.1479-28.502-1.9058-39.326 5.2844-10.799 7.1732-18.628 17.935-22.181 29.094-2.0441 6.4203-2.1239 9.7517-2.407 15.364h-11.888c0.56117-7.1302 0.89729-11.226 2.5264-16.384 7.1097-22.51 20.536-36.18 40.743-43.788 5.5678-2.0961 13.846-3.6 21.666-3.6241h8e-3c5.353-0.017261 10.546 0.65254 14.559 1.93 6.4971 2.0677 12.072 5.0142 16.748 8.5839 10.463 7.9879 16.997 19.492 18.907 36.173 0.46231 4.0359-0.28236 10.444-0.96313 17.261l-3.399 34.007c-0.0933 0.93119 0.76603 1.8444 1.7289 1.8373l6.3272-0.0632c6.1617-0.0598 10.568 0.4124 13.221 1.2895 2.7629 0.91322 3.8004 1.6963 5.317 4.1803l5e-3 4e-3 0.21478 0.34976c0.0471 0.0764 0.10046 0.14974 0.15894 0.21912l0.0577 0.0673c0.0602 0.15685 0.14325 0.38759 0.23969 0.69953 0.19761 0.63914 0.43822 1.6008 0.55891 2.8234 0.25022 2.5336 0.22153 6.1156-0.0266 10.046-0.49627 7.8664-1.8094 17.188-2.5713 24.816l-0.61684 5.8815c-0.0928 0.92611 0.75723 1.8361 1.7163 1.8373l12.603-0.55918c0.65882-5.8e-4 1.1613-0.44264 1.2262-1.0788l0.49729-4.9388s0.0124-0.13679 0.0367-0.38346l-7.3e-4 -4e-3c0.70804-7.0884 2.0651-16.606 2.6169-25.373 0.27655-4.381 0.36853-8.5887-0.0155-12.478-0.35802-3.6253-0.96427-7.3143-3.5028-10.661-3.071-4.8674-7.6805-8.3639-13.012-10.126-3.0901-1.0214-6.4011-1.4963-9.9082-1.7614l1.9862-19.873c0.6413-6.4133 1.7531-13.464 0.94879-20.484-2.2772-19.885-10.879-35.688-24.535-46.114-6.0487-4.6178-13.166-8.3434-21.218-10.906-6.0114-1.9132-12.594-2.6568-19.183-2.638h-0.013zm-124.43 261.55c-0.66294-3.1e-4 -1.1677 0.44625-1.2289 1.0872-0.40778 4.3004-0.64243 8.4101-0.3884 12.431 0.52761 8.3889 4.1166 16.818 12.308 21.955 6.8772 4.3129 15.178 4.0654 23.993 4.155 8.9028 0.0904 18.256-0.3961 24.113-0.3961h37.227c0.6588-5.9e-4 1.1613-0.44267 1.2262-1.0788l1.25-12.52c0.0928-0.92612-0.75723-1.836-1.7163-1.8373h-37.227c-6.6524 0-15.743 0.47956-23.953 0.39613-4.0585-0.0412-8.018-0.41544-11.058-0.85546-1.52-0.22-2.814-0.45742-3.7578-0.67003-0.47185-0.10637-0.85507-0.2095-1.1192-0.29076-0.26417-0.0813-0.45621-0.19914-0.2663-0.08-2.2314-1.3994-3.402-2.6071-4.1749-4.1297-0.77288-1.5226-1.1549-3.5126-1.3336-6.3547-0.16845-2.679 0.0278-6.0537 0.39958-9.983 0.0867-0.92489-0.76302-1.8289-1.7191-1.8289z" color="#000000" color-rendering="auto" dominant-baseline="auto" fill="#e8830c" fill-rule="evenodd" image-rendering="auto" shape-rendering="auto" solid-color="#000000" style="font-feature-settings:normal;font-variant-alternates:normal;font-variant-caps:normal;font-variant-ligatures:normal;font-variant-numeric:normal;font-variant-position:normal;isolation:auto;mix-blend-mode:normal;shape-padding:0;text-decoration-color:#000000;text-decoration-line:none;text-decoration-style:solid;text-indent:0;text-orientation:mixed;text-transform:none;white-space:normal"/></g></svg>
