<?xml version="1.0" encoding="UTF-8" standalone="no"?>
<svg
   xmlns:dc="http://purl.org/dc/elements/1.1/"
   xmlns:cc="http://creativecommons.org/ns#"
   xmlns:rdf="http://www.w3.org/1999/02/22-rdf-syntax-ns#"
   xmlns:svg="http://www.w3.org/2000/svg"
   xmlns="http://www.w3.org/2000/svg"
   xmlns:sodipodi="http://sodipodi.sourceforge.net/DTD/sodipodi-0.dtd"
   xmlns:inkscape="http://www.inkscape.org/namespaces/inkscape"
   width="3e3"
   height="1200"
   version="1.1"
   viewBox="0 0 793.75 317.5"
   id="svg10"
   sodipodi:docname="Locke Data Logo Orange.svg"
   inkscape:version="0.92.2 (5c3e80d, 2017-08-06)">
  <metadata
     id="metadata16">
    <rdf:RDF>
      <cc:Work
         rdf:about="">
        <dc:format>image/svg+xml</dc:format>
        <dc:type
           rdf:resource="http://purl.org/dc/dcmitype/StillImage" />
      </cc:Work>
    </rdf:RDF>
  </metadata>
  <defs
     id="defs14" />
  <sodipodi:namedview
     pagecolor="#ffffff"
     bordercolor="#666666"
     borderopacity="1"
     objecttolerance="10"
     gridtolerance="10"
     guidetolerance="10"
     inkscape:pageopacity="0"
     inkscape:pageshadow="2"
     inkscape:window-width="640"
     inkscape:window-height="480"
     id="namedview12"
     showgrid="false"
     inkscape:zoom="0.102"
     inkscape:cx="1500"
     inkscape:cy="600"
     inkscape:current-layer="svg10" />
  <g
     aria-label="Locke Data"
     style="font-size:137.91999817px;line-height:1.25;font-family:Cavorting;letter-spacing:0px;word-spacing:0px;fill:#e8830c;stroke-width:7.42140007;paint-order:markers stroke fill"
     id="text4">
    <path
       d="m 124.51007,158.82622 -9.63016,85.5939 25.79266,-1.01015 q 1.75094,0.0673 1.75094,1.75094 l -1.75094,13.94015 q -0.20203,1.75094 -1.75094,1.81828 l -41.483747,1.48157 q -1.414218,0 -1.414218,-1.27954 L 107.53945,159.23028 q 0.13468,-0.80812 0.40406,-1.14484 0.33672,-0.33672 1.27953,-0.40406 l 13.53609,-0.47141 q 1.75094,0.0673 1.75094,1.61625 z"
       style="font-family:'Contrail One';fill:#e8830c;stroke-width:7.42140007;paint-order:markers stroke fill"
       id="path21" />
    <path
       d="m 180.00132,262.87231 q -11.91984,0 -17.50937,-7.13844 -5.52219,-7.20578 -5.52219,-20.9439 0,-6.39766 1.41422,-16.70125 1.41422,-10.30359 2.6264,-14.95031 1.21219,-4.71407 3.43454,-9.15875 2.22234,-4.51203 5.25281,-7.40782 6.66703,-6.465 18.04812,-6.465 16.1625,0 20.94391,11.8525 2.55906,6.33032 2.55906,15.35438 0,8.95672 -1.41422,18.58687 -1.34687,9.63016 -2.55906,14.27688 -1.21219,4.57937 -3.43453,9.02406 -2.155,4.37734 -5.18547,7.27313 -6.66703,6.39765 -18.65422,6.39765 z m 11.91984,-29.49656 q 0.74079,-3.56922 1.88563,-13.33406 1.21219,-9.83219 1.21219,-14.54625 0,-11.44844 -8.28328,-11.44844 -3.90594,0 -6.465,3.70391 -2.49172,3.7039 -4.04063,12.3239 -3.09781,17.50938 -3.09781,28.41906 0,10.90969 8.21594,10.90969 3.90593,0 6.465,-3.7039 2.6264,-3.77125 4.10796,-12.32391 z"
       style="font-family:'Contrail One';fill:#e8830c;stroke-width:7.42140007;paint-order:markers stroke fill"
       id="path23" />
    <path
       d="m 272.53164,182.1945 q 1.48156,0.53875 1.48156,2.55906 l -1.5489,12.18922 q -0.13469,1.34688 -1.88563,1.34688 -1.68359,0 -3.2325,-0.67344 -6.53234,-2.89578 -10.84234,-2.89578 -4.31,0 -6.86906,3.56922 -2.55907,3.56922 -4.10797,10.23625 -2.89578,12.45859 -2.89578,22.76218 0,16.56657 8.55265,16.56657 6.19563,0 10.03422,-1.54891 3.83859,-1.61625 4.98344,-1.61625 2.35703,0 2.35703,2.02031 l -1.41422,11.8525 q -0.13469,1.21219 -0.53875,1.48156 -0.33672,0.20204 -0.94281,0.47141 -8.1486,2.35703 -15.35438,2.35703 -7.13843,0 -11.31375,-1.81828 -4.10797,-1.81828 -6.53234,-4.64672 -2.42438,-2.89578 -3.90594,-6.9364 -2.6264,-6.93641 -2.6264,-17.03797 0,-10.16891 1.27953,-17.64406 1.34687,-7.5425 2.76109,-12.25657 1.48156,-4.71406 3.90594,-9.02406 2.42437,-4.37734 5.65687,-7.20578 7.0711,-6.19563 18.72157,-6.19563 7.81187,0 14.27687,2.08766 z"
       style="font-family:'Contrail One';fill:#e8830c;stroke-width:7.42140007;paint-order:markers stroke fill"
       id="path25" />
    <path
       d="m 336.50819,260.71731 q 0,1.21219 -1.81828,1.21219 l -14.34422,0.47141 q -1.01015,-0.0674 -1.48156,-1.27954 l -13.73813,-38.72265 -4.24265,37.7125 q -0.13469,0.94281 -0.47141,1.34687 -0.33672,0.40407 -1.27953,0.47141 l -13.53609,0.47141 q -1.48157,-0.13469 -1.48157,-1.27954 l 12.4586,-110.64578 q 0.13469,-0.94281 0.4714,-1.34687 0.33672,-0.40406 1.27954,-0.47141 l 13.19937,-0.4714 q 1.75094,0.20203 1.75094,1.81828 l -7.67719,68.15187 17.91344,-35.28812 q 0.80812,-1.61625 2.22234,-1.6836 l 13.94016,-0.4714 q 1.68359,0.20203 1.68359,1.5489 0,0.74079 -0.26937,1.34688 l -20.13578,34.95141 15.35437,41.34906 q 0.20203,0.4714 0.20203,0.80812 z"
       style="font-family:'Contrail One';fill:#e8830c;stroke-width:7.42140007;paint-order:markers stroke fill"
       id="path27" />
    <path
       d="m 354.42163,249.53825 q -1.54891,-4.04063 -2.155,-7.94656 -0.53875,-3.97328 -0.53875,-10.84235 0,-6.86906 1.48156,-16.97062 4.91609,-33.67188 30.57406,-33.67188 9.89953,0 15.15234,6.80172 5.25282,6.80172 5.25282,17.64407 0,10.84234 -1.34688,21.07859 -0.20203,1.81828 -2.08765,1.88562 l -33.26782,1.14485 q -0.0673,1.01015 -0.0673,2.69375 0,7.60984 2.62641,12.05453 2.69375,4.44469 8.08125,4.44469 5.3875,0 9.96687,-1.54891 4.64672,-1.61625 5.45484,-1.61625 0.80813,0 1.41422,0.53875 0.6061,0.53875 0.6061,1.48156 l -1.34688,11.8525 q -0.0673,1.01016 -0.40406,1.34688 -0.26938,0.26937 -1.14484,0.60609 -8.1486,2.35703 -15.6911,2.35703 -7.5425,0 -11.71781,-1.81828 -4.17531,-1.81828 -6.73437,-4.64672 -2.49172,-2.89578 -4.10797,-6.86906 z m 14.68093,-37.77984 -0.60609,4.31 17.57672,-0.87547 q 1.14484,-0.0674 1.48156,-0.40406 1.01016,-1.01016 1.01016,-5.52219 0,-4.57938 -0.33672,-6.39766 -0.26938,-1.88562 -1.01016,-3.83859 -1.5489,-4.31 -5.32015,-4.31 -3.70391,0 -5.85891,1.27953 -4.78141,2.96312 -6.93641,15.75844 z"
       style="font-family:'Contrail One';fill:#e8830c;stroke-width:7.42140007;paint-order:markers stroke fill"
       id="path29" />
    <path
       d="m 457.32288,159.23028 q 0.13468,-0.80812 0.4714,-1.14484 0.33672,-0.33672 6.80172,-0.94281 6.465,-0.6061 17.71141,-0.6061 11.31375,0 17.37468,6.53235 6.06094,6.465 6.06094,17.77875 0,21.34796 -4.7814,49.16093 -2.55907,14.74828 -8.28329,21.95406 -5.25281,6.59969 -16.43187,8.68735 -5.05078,0.87547 -12.32391,1.14484 l -16.76859,0.6061 q -1.48156,-0.0674 -1.48156,-1.27954 z m 15.42171,12.99735 -8.21593,73.33734 q 10.03422,-0.87547 13.87281,-3.90594 3.90594,-3.03047 5.45484,-11.51578 1.54891,-8.48531 3.03047,-23.16625 1.54891,-14.68094 1.54891,-24.04172 0,-5.52219 -2.69375,-8.21594 -2.69375,-2.69375 -7.34047,-2.69375 -4.57938,0 -5.65688,0.20204 z"
       style="font-family:'Contrail One';fill:#e8830c;stroke-width:7.42140007;paint-order:markers stroke fill"
       id="path31" />
    <path
       d="m 576.52131,182.46388 -8.75469,77.64734 q -0.20203,1.75094 -1.75094,1.81828 l -13.60344,0.47141 q -1.41421,-0.13469 -1.41421,-1.27954 l 1.27953,-9.15875 q -3.09782,5.25282 -6.80172,8.08125 -3.63656,2.82844 -8.21594,2.82844 -4.57937,0 -7.81187,-1.5489 -3.2325,-1.61625 -5.32016,-4.17532 -2.02031,-2.6264 -3.29984,-6.26297 -2.35703,-6.465 -2.35703,-17.64406 0,-11.2464 1.48156,-19.05828 1.5489,-7.81187 2.69375,-11.8525 1.14484,-4.10797 3.03047,-8.41797 1.95296,-4.31 4.37734,-7.20578 5.52219,-6.59969 13.94016,-6.59969 6.26296,0 9.56281,3.03047 3.29984,2.96313 5.52219,8.82203 l 0.80812,-9.15875 q 0.13469,-1.48156 1.68359,-1.61625 l 13.19938,-0.4714 q 1.75094,0.13469 1.75094,1.75094 z m -41.07969,48.82421 q 0,16.09516 8.62,16.09516 3.77125,0 6.12828,-3.43453 2.35703,-3.50188 4.04063,-13.94016 1.75093,-10.43828 1.75093,-15.21968 0,-4.78141 -0.0673,-6.06094 -0.0673,-1.27953 -0.26938,-3.36719 -0.20203,-2.155 -0.74078,-3.56922 -0.53875,-1.48156 -1.41422,-2.96312 -1.75093,-2.89578 -5.65687,-2.89578 -3.90594,0 -6.19563,3.50187 -2.28968,3.43453 -3.56921,9.22609 -2.62641,12.39125 -2.62641,22.6275 z"
       style="font-family:'Contrail One';fill:#e8830c;stroke-width:7.42140007;paint-order:markers stroke fill"
       id="path33" />
    <path
       d="m 598.54273,180.98231 q 1.54891,-14.81562 2.02032,-15.28703 0.4714,-0.53875 1.41422,-0.60609 l 12.86265,-0.47141 q 1.81828,0.13469 1.81828,1.6836 -1.27953,7.47515 -2.155,14.34421 l 15.6911,-0.53875 q 1.61625,0.0674 1.61625,1.75094 l -1.88563,10.70766 q -0.26937,1.61625 -1.68359,1.68359 l -15.42172,0.6061 q -4.57938,41.21437 -4.57938,45.45703 0,7.87921 6.73438,7.87921 3.43453,0 6.66703,-1.0775 3.2325,-1.0775 4.04063,-1.0775 1.41421,0 1.41421,1.75094 l -1.41421,11.78516 q -0.13469,1.01015 -0.53875,1.48156 -0.33672,0.47141 -3.29985,1.14484 -2.89578,0.67344 -9.96687,0.67344 -10.37094,0 -15.35438,-4.7814 -4.98344,-4.84875 -4.98344,-14.41157 0,-9.56281 5.32016,-48.62218 l -6.59969,0.26937 q -1.68359,-0.0673 -1.68359,-1.68359 l 1.81828,-10.84235 q 0.20203,-1.5489 1.75094,-1.61625 z"
       style="font-family:'Contrail One';fill:#e8830c;stroke-width:7.42140007;paint-order:markers stroke fill"
       id="path35" />
    <path
       d="m 697.74009,182.46388 -8.75469,77.64734 q -0.20203,1.75094 -1.75094,1.81828 l -13.60343,0.47141 q -1.41422,-0.13469 -1.41422,-1.27954 l 1.27953,-9.15875 q -3.09781,5.25282 -6.80172,8.08125 -3.63656,2.82844 -8.21594,2.82844 -4.57937,0 -7.81187,-1.5489 -3.2325,-1.61625 -5.32016,-4.17532 -2.02031,-2.6264 -3.29984,-6.26297 -2.35703,-6.465 -2.35703,-17.64406 0,-11.2464 1.48156,-19.05828 1.5489,-7.81187 2.69375,-11.8525 1.14484,-4.10797 3.03047,-8.41797 1.95297,-4.31 4.37734,-7.20578 5.52219,-6.59969 13.94016,-6.59969 6.26297,0 9.56281,3.03047 3.29984,2.96313 5.52219,8.82203 l 0.80812,-9.15875 q 0.13469,-1.48156 1.6836,-1.61625 l 13.19937,-0.4714 q 1.75094,0.13469 1.75094,1.75094 z m -41.07969,48.82421 q 0,16.09516 8.62,16.09516 3.77125,0 6.12828,-3.43453 2.35703,-3.50188 4.04063,-13.94016 1.75093,-10.43828 1.75093,-15.21968 0,-4.78141 -0.0673,-6.06094 -0.0673,-1.27953 -0.26937,-3.36719 -0.20204,-2.155 -0.74079,-3.56922 -0.53875,-1.48156 -1.41421,-2.96312 -1.75094,-2.89578 -5.65688,-2.89578 -3.90594,0 -6.19562,3.50187 -2.28969,3.43453 -3.56922,9.22609 -2.62641,12.39125 -2.62641,22.6275 z"
       style="font-family:'Contrail One';fill:#e8830c;stroke-width:7.42140007;paint-order:markers stroke fill"
       id="path37" />
  </g>
  <path
     inkscape:connector-curvature="0"
     id="path6"
     style="color:#000000;font-variant-ligatures:normal;font-variant-position:normal;font-variant-caps:normal;font-variant-numeric:normal;font-variant-alternates:normal;font-feature-settings:normal;text-indent:0;text-decoration:none;text-decoration-line:none;text-decoration-style:solid;text-decoration-color:#000000;text-transform:none;text-orientation:mixed;dominant-baseline:auto;white-space:normal;shape-padding:0;isolation:auto;mix-blend-mode:normal;solid-color:#000000;fill:#e8830c;fill-rule:evenodd;color-rendering:auto;image-rendering:auto;shape-rendering:auto"
     dominant-baseline="auto"
     d="m 491.55,7.614 c -9.6309,0.02999 -19.27,1.661 -27.216,4.6523 -24.309,9.1514 -42.345,27.767 -50.72,54.281 -0.0123,0.04251 -0.0242,0.08609 -0.0329,0.13053 -2.0692,10.279 -2.9514,17.763 -3.8288,27.589 l -0.55594,6.1946 c -0.0806,0.92195 0.76587,1.8191 1.7177,1.8205 h 40.004 c 0.6618,8e-4 1.1665,-0.44368 1.2296,-1.083 l 0.60498,-6.2789 c 0.85096,-8.7583 0.84373,-12.688 2.2634,-19.553 2.3513,-7.331 8.2059,-15.417 15.518,-20.274 7.3663,-4.8931 15.655,-6.9214 25.278,-3.4471 3.8872,1.4035 6.9763,3.3265 9.8338,5.7816 5.5047,4.7291 7.297,10.821 7.4577,20.577 0.13151,7.9982 -1.1757,18.092 -2.4814,29.338 h -78.869 c -7.8441,0 -15.385,-0.47335 -22.771,0.38769 -7.4242,0.86558 -15.26,3.4843 -21.038,9.9661 -5.8594,6.5729 -7.9166,14.774 -9.1233,22.865 -1.2092,8.106 -1.49,16.532 -2.2596,24.239 l -0.77982,7.7959 c -0.0928,0.92612 0.7572,1.836 1.7163,1.8373 h 12.52 c 0.6588,-5.8e-4 1.1613,-0.44267 1.2262,-1.0788 l 0.77983,-7.7959 c 0.83723,-8.383 1.1508,-16.663 2.1694,-23.497 1.0169,-6.8172 2.8923,-11.94 5.1523,-14.475 2.4722,-2.7732 5.2867,-3.8932 10.677,-4.5216 5.3403,-0.62261 12.605,-0.28654 20.967,-0.28654 h 92.384 c 0.65771,-7e-5 1.1601,-0.44013 1.2269,-1.0746 l 0.65211,-6.2241 c 1.4521,-13.808 3.5831,-26.655 3.3885,-38.482 -0.19501,-11.856 -3.1472,-23.388 -12.525,-31.445 -4.0025,-3.4389 -8.753,-6.4045 -14.416,-8.4491 -14.258,-5.1479 -28.502,-1.9058 -39.326,5.2844 -10.799,7.1732 -18.628,17.935 -22.181,29.094 -2.0441,6.4203 -2.1239,9.7517 -2.407,15.364 h -11.888 c 0.56117,-7.1302 0.89729,-11.226 2.5264,-16.384 7.1097,-22.51 20.536,-36.18 40.743,-43.788 5.5678,-2.0961 13.846,-3.6 21.666,-3.6241 h 0.008 c 5.353,-0.01726 10.546,0.65254 14.559,1.93 6.4971,2.0677 12.072,5.0142 16.748,8.5839 10.463,7.9879 16.997,19.492 18.907,36.173 0.46231,4.0359 -0.28236,10.444 -0.96313,17.261 l -3.399,34.007 c -0.0933,0.93119 0.76603,1.8444 1.7289,1.8373 l 6.3272,-0.0632 c 6.1617,-0.0598 10.568,0.4124 13.221,1.2895 2.7629,0.91322 3.8004,1.6963 5.317,4.1803 l 0.005,0.004 0.21478,0.34976 c 0.0471,0.0764 0.10046,0.14974 0.15894,0.21912 l 0.0577,0.0673 c 0.0602,0.15685 0.14325,0.38759 0.23969,0.69953 0.19761,0.63914 0.43822,1.6008 0.55891,2.8234 0.25022,2.5336 0.22153,6.1156 -0.0266,10.046 -0.49627,7.8664 -1.8094,17.188 -2.5713,24.816 l -0.61684,5.8815 c -0.0928,0.92611 0.75723,1.8361 1.7163,1.8373 l 12.603,-0.55918 c 0.65882,-5.8e-4 1.1613,-0.44264 1.2262,-1.0788 l 0.49729,-4.9388 c 0,0 0.0124,-0.13679 0.0367,-0.38346 l -7.3e-4,-0.004 c 0.70804,-7.0884 2.0651,-16.606 2.6169,-25.373 0.27655,-4.381 0.36853,-8.5887 -0.0155,-12.478 -0.35802,-3.6253 -0.96427,-7.3143 -3.5028,-10.661 -3.071,-4.8674 -7.6805,-8.3639 -13.012,-10.126 -3.0901,-1.0214 -6.4011,-1.4963 -9.9082,-1.7614 l 1.9862,-19.873 c 0.6413,-6.4133 1.7531,-13.464 0.94879,-20.484 -2.2772,-19.885 -10.879,-35.688 -24.535,-46.114 -6.0487,-4.6178 -13.166,-8.3434 -21.218,-10.906 -6.0114,-1.9132 -12.594,-2.6568 -19.183,-2.638 h -0.013 z m -124.43,261.55 c -0.66294,-3.1e-4 -1.1677,0.44625 -1.2289,1.0872 -0.40778,4.3004 -0.64243,8.4101 -0.3884,12.431 0.52761,8.3889 4.1166,16.818 12.308,21.955 6.8772,4.3129 15.178,4.0654 23.993,4.155 8.9028,0.0904 18.256,-0.3961 24.113,-0.3961 h 37.227 c 0.6588,-5.9e-4 1.1613,-0.44267 1.2262,-1.0788 l 1.25,-12.52 c 0.0928,-0.92612 -0.75723,-1.836 -1.7163,-1.8373 h -37.227 c -6.6524,0 -15.743,0.47956 -23.953,0.39613 -4.0585,-0.0412 -8.018,-0.41544 -11.058,-0.85546 -1.52,-0.22 -2.814,-0.45742 -3.7578,-0.67003 -0.47185,-0.10637 -0.85507,-0.2095 -1.1192,-0.29076 -0.26417,-0.0813 -0.45621,-0.19914 -0.2663,-0.08 -2.2314,-1.3994 -3.402,-2.6071 -4.1749,-4.1297 -0.77288,-1.5226 -1.1549,-3.5126 -1.3336,-6.3547 -0.16845,-2.679 0.0278,-6.0537 0.39958,-9.983 0.0867,-0.92489 -0.76302,-1.8289 -1.7191,-1.8289 z" />
</svg>
